<svg width="95" height="21" viewBox="0 0 95 21" fill="none" xmlns="http://www.w3.org/2000/svg">
<path d="M6.73628 19.2752C5.39277 19.2752 4.23569 18.9882 3.26505 18.4141C2.30032 17.834 1.55458 17.0202 1.02783 15.9727C0.506999 14.9192 0.246582 13.6851 0.246582 12.2706C0.246582 10.8738 0.506999 9.64276 1.02783 8.57741C1.55458 7.51207 2.28849 6.68052 3.22954 6.08274C4.17651 5.48497 5.28328 5.18608 6.54985 5.18608C7.31926 5.18608 8.065 5.31333 8.78707 5.56783C9.50913 5.82232 10.1572 6.22183 10.7313 6.76634C11.3054 7.31084 11.7582 8.01811 12.0896 8.88814C12.4211 9.75225 12.5868 10.8028 12.5868 12.0398V12.9808H1.74694V10.9922H9.98557C9.98557 10.2938 9.84353 9.67531 9.55944 9.13672C9.27535 8.59221 8.87584 8.16312 8.36093 7.84943C7.85193 7.53575 7.25416 7.37891 6.5676 7.37891C5.82187 7.37891 5.17082 7.56238 4.61448 7.92933C4.06405 8.29036 3.63792 8.76385 3.33607 9.34979C3.04014 9.92981 2.89218 10.5601 2.89218 11.2408V12.7944C2.89218 13.7058 3.05198 14.4812 3.37158 15.1204C3.6971 15.7596 4.14987 16.2479 4.72989 16.5852C5.30991 16.9167 5.98759 17.0824 6.76292 17.0824C7.266 17.0824 7.72468 17.0114 8.13898 16.8693C8.55328 16.7214 8.91136 16.5024 9.2132 16.2124C9.51505 15.9223 9.74587 15.5643 9.90567 15.1381L12.4181 15.5909C12.2169 16.3307 11.8558 16.9788 11.335 17.5352C10.8201 18.0856 10.172 18.5147 9.39076 18.8224C8.61543 19.1243 7.7306 19.2752 6.73628 19.2752ZM22.4301 13.1051H25.129L27.0288 15.582L27.9255 16.6829L30.9528 20.6335H28.1474L26.1233 17.9968L25.4308 17.038L22.4301 13.1051ZM31.5388 9.90909C31.5388 11.8504 31.1836 13.5194 30.4734 14.9162C29.7632 16.3071 28.7896 17.3783 27.5526 18.13C26.3215 18.8757 24.9218 19.2486 23.3534 19.2486C21.779 19.2486 20.3734 18.8757 19.1364 18.13C17.9053 17.3783 16.9347 16.3041 16.2245 14.9073C15.5142 13.5105 15.1591 11.8445 15.1591 9.90909C15.1591 7.9678 15.5142 6.30173 16.2245 4.91087C16.9347 3.51409 17.9053 2.44283 19.1364 1.69709C20.3734 0.94543 21.779 0.569602 23.3534 0.569602C24.9218 0.569602 26.3215 0.94543 27.5526 1.69709C28.7896 2.44283 29.7632 3.51409 30.4734 4.91087C31.1836 6.30173 31.5388 7.9678 31.5388 9.90909ZM28.8221 9.90909C28.8221 8.42945 28.5824 7.18359 28.103 6.17152C27.6295 5.15353 26.9785 4.38411 26.1499 3.86328C25.3272 3.33653 24.395 3.07315 23.3534 3.07315C22.3058 3.07315 21.3707 3.33653 20.548 3.86328C19.7253 4.38411 19.0743 5.15353 18.5949 6.17152C18.1214 7.18359 17.8846 8.42945 17.8846 9.90909C17.8846 11.3887 18.1214 12.6375 18.5949 13.6555C19.0743 14.6676 19.7253 15.437 20.548 15.9638C21.3707 16.4846 22.3058 16.745 23.3534 16.745C24.395 16.745 25.3272 16.4846 26.1499 15.9638C26.9785 15.437 27.6295 14.6676 28.103 13.6555C28.5824 12.6375 28.8221 11.3887 28.8221 9.90909ZM43.384 13.3448V5.36364H46.0474V19H43.4373V16.6385H43.2952C42.9815 17.3665 42.4785 17.9731 41.786 18.4585C41.0994 18.9379 40.2442 19.1776 39.2203 19.1776C38.3444 19.1776 37.569 18.9852 36.8943 18.6005C36.2255 18.2099 35.6988 17.6328 35.3141 16.8693C34.9353 16.1058 34.7459 15.1618 34.7459 14.0373V5.36364H37.4003V13.7177C37.4003 14.6469 37.6578 15.3867 38.1727 15.9371C38.6876 16.4876 39.3564 16.7628 40.1791 16.7628C40.6763 16.7628 41.1705 16.6385 41.6617 16.3899C42.1589 16.1413 42.5702 15.7655 42.8957 15.2624C43.2272 14.7594 43.3899 14.1201 43.384 13.3448ZM55.358 19.2752C54.0796 19.2752 52.9639 18.9822 52.0111 18.3963C51.0582 17.8104 50.3183 16.9906 49.7916 15.9371C49.2648 14.8836 49.0015 13.6526 49.0015 12.244C49.0015 10.8294 49.2648 9.59245 49.7916 8.53303C50.3183 7.4736 51.0582 6.65092 52.0111 6.06499C52.9639 5.47905 54.0796 5.18608 55.358 5.18608C56.6364 5.18608 57.7521 5.47905 58.7049 6.06499C59.6578 6.65092 60.3977 7.4736 60.9244 8.53303C61.4512 9.59245 61.7145 10.8294 61.7145 12.244C61.7145 13.6526 61.4512 14.8836 60.9244 15.9371C60.3977 16.9906 59.6578 17.8104 58.7049 18.3963C57.7521 18.9822 56.6364 19.2752 55.358 19.2752ZM55.3669 17.0469C56.1955 17.0469 56.882 16.8279 57.4265 16.3899C57.971 15.9519 58.3735 15.369 58.6339 14.641C58.9003 13.913 59.0334 13.111 59.0334 12.2351C59.0334 11.3651 58.9003 10.5661 58.6339 9.83807C58.3735 9.10417 57.971 8.51527 57.4265 8.07138C56.882 7.62749 56.1955 7.40554 55.3669 7.40554C54.5324 7.40554 53.8399 7.62749 53.2895 8.07138C52.745 8.51527 52.3395 9.10417 52.0732 9.83807C51.8128 10.5661 51.6826 11.3651 51.6826 12.2351C51.6826 13.111 51.8128 13.913 52.0732 14.641C52.3395 15.369 52.745 15.9519 53.2895 16.3899C53.8399 16.8279 54.5324 17.0469 55.3669 17.0469ZM74.8959 8.69283L72.49 9.11896C72.3894 8.8112 72.2296 8.51823 72.0106 8.24006C71.7975 7.96188 71.5075 7.73402 71.1406 7.55646C70.7736 7.37891 70.3149 7.29013 69.7645 7.29013C69.0129 7.29013 68.3855 7.45881 67.8824 7.79616C67.3793 8.1276 67.1278 8.5567 67.1278 9.08345C67.1278 9.53918 67.2965 9.90613 67.6338 10.1843C67.9712 10.4625 68.5157 10.6903 69.2674 10.8679L71.4335 11.3651C72.6883 11.6551 73.6234 12.1019 74.2389 12.7056C74.8545 13.3093 75.1622 14.0935 75.1622 15.0582C75.1622 15.875 74.9255 16.603 74.452 17.2422C73.9844 17.8755 73.3304 18.3726 72.49 18.7337C71.6555 19.0947 70.6878 19.2752 69.587 19.2752C68.06 19.2752 66.8141 18.9497 65.8494 18.2987C64.8847 17.6417 64.2928 16.7095 64.0738 15.5021L66.6395 15.1115C66.7993 15.7803 67.1278 16.2863 67.625 16.6296C68.1221 16.967 68.7702 17.1357 69.5692 17.1357C70.4392 17.1357 71.1347 16.9551 71.6555 16.5941C72.1763 16.2272 72.4367 15.7803 72.4367 15.2536C72.4367 14.8274 72.2769 14.4693 71.9573 14.1793C71.6437 13.8893 71.1613 13.6703 70.5103 13.5224L68.202 13.0163C66.9295 12.7263 65.9885 12.2647 65.3789 11.6314C64.7752 10.9981 64.4733 10.1961 64.4733 9.2255C64.4733 8.42057 64.6982 7.71626 65.148 7.11257C65.5978 6.50888 66.2193 6.03835 67.0124 5.70099C67.8055 5.35772 68.714 5.18608 69.7379 5.18608C71.2116 5.18608 72.3716 5.50568 73.218 6.14489C74.0644 6.77817 74.6237 7.62749 74.8959 8.69283ZM78.0808 19V5.36364H80.7353V19H78.0808ZM79.4214 3.25959C78.9597 3.25959 78.5632 3.1057 78.2318 2.79794C77.9062 2.48426 77.7435 2.11139 77.7435 1.67933C77.7435 1.24136 77.9062 0.868489 78.2318 0.560723C78.5632 0.24704 78.9597 0.0901985 79.4214 0.0901985C79.883 0.0901985 80.2766 0.24704 80.6021 0.560723C80.9336 0.868489 81.0993 1.24136 81.0993 1.67933C81.0993 2.11139 80.9336 2.48426 80.6021 2.79794C80.2766 3.1057 79.883 3.25959 79.4214 3.25959ZM94.5248 8.69283L92.1189 9.11896C92.0183 8.8112 91.8585 8.51823 91.6395 8.24006C91.4264 7.96188 91.1364 7.73402 90.7695 7.55646C90.4025 7.37891 89.9438 7.29013 89.3934 7.29013C88.6418 7.29013 88.0144 7.45881 87.5113 7.79616C87.0082 8.1276 86.7567 8.5567 86.7567 9.08345C86.7567 9.53918 86.9254 9.90613 87.2627 10.1843C87.6001 10.4625 88.1446 10.6903 88.8963 10.8679L91.0625 11.3651C92.3172 11.6551 93.2523 12.1019 93.8679 12.7056C94.4834 13.3093 94.7911 14.0935 94.7911 15.0582C94.7911 15.875 94.5544 16.603 94.0809 17.2422C93.6134 17.8755 92.9594 18.3726 92.1189 18.7337C91.2844 19.0947 90.3167 19.2752 89.2159 19.2752C87.6889 19.2752 86.443 18.9497 85.4783 18.2987C84.5136 17.6417 83.9217 16.7095 83.7027 15.5021L86.2684 15.1115C86.4282 15.7803 86.7567 16.2863 87.2539 16.6296C87.751 16.967 88.3991 17.1357 89.1981 17.1357C90.0681 17.1357 90.7636 16.9551 91.2844 16.5941C91.8052 16.2272 92.0657 15.7803 92.0657 15.2536C92.0657 14.8274 91.9059 14.4693 91.5862 14.1793C91.2726 13.8893 90.7902 13.6703 90.1392 13.5224L87.8309 13.0163C86.5584 12.7263 85.6174 12.2647 85.0078 11.6314C84.4041 10.9981 84.1022 10.1961 84.1022 9.2255C84.1022 8.42057 84.3271 7.71626 84.7769 7.11257C85.2268 6.50888 85.8482 6.03835 86.6413 5.70099C87.4344 5.35772 88.3429 5.18608 89.3668 5.18608C90.8405 5.18608 92.0005 5.50568 92.8469 6.14489C93.6933 6.77817 94.2526 7.62749 94.5248 8.69283Z" fill="white"/>
</svg>
