<svg width="353" height="272" viewBox="0 0 353 272" fill="none" xmlns="http://www.w3.org/2000/svg">
<path d="M63.5703 267.166C52.77 269.481 42.1378 262.602 39.8227 251.802L22.0073 168.69L124.675 146.682L146.682 249.35L63.5703 267.166Z" fill="white"/>
<mask id="path-2-inside-1_5_3" fill="white">
<path d="M146.682 249.35L124.675 146.682L227.343 124.675L245.158 207.787C247.473 218.587 240.595 229.22 229.794 231.535L146.682 249.35Z"/>
</mask>
<path d="M146.682 249.35L124.675 146.682L227.343 124.675L245.158 207.787C247.473 218.587 240.595 229.22 229.794 231.535L146.682 249.35Z" fill="url(#paint0_linear_5_3)"/>
<path d="M146.487 249.392L124.438 146.529L124.913 146.836L146.878 249.308L146.487 249.392ZM227.343 124.675L249.35 227.343L227.343 124.675ZM249.35 227.343L146.682 249.35L249.35 227.343ZM124.438 146.529L227.301 124.48L227.385 124.871L124.913 146.836L124.438 146.529Z" fill="black" mask="url(#path-2-inside-1_5_3)"/>
<mask id="path-4-inside-2_5_3" fill="white">
<path d="M4.19186 85.5776C1.87676 74.7772 8.75542 64.145 19.5558 61.8299L102.668 44.0145L124.675 146.682L22.0073 168.69L4.19186 85.5776Z"/>
</mask>
<path d="M4.19186 85.5776C1.87676 74.7772 8.75542 64.145 19.5558 61.8299L102.668 44.0145L124.675 146.682L22.0073 168.69L4.19186 85.5776Z" fill="url(#paint1_linear_5_3)"/>
<path d="M0 66.0218L102.668 44.0145L0 66.0218ZM124.913 146.836L22.0492 168.885L21.9654 168.494L124.438 146.529L124.913 146.836ZM22.0073 168.69L0 66.0218L22.0073 168.69ZM102.863 43.9726L124.913 146.836L124.438 146.529L102.472 44.0564L102.863 43.9726Z" fill="black" mask="url(#path-4-inside-2_5_3)"/>
<mask id="path-6-inside-3_5_3" fill="white">
<path d="M63.5703 267.166C52.77 269.481 42.1378 262.602 39.8227 251.802L22.0073 168.69L124.675 146.682L146.682 249.35L63.5703 267.166Z"/>
</mask>
<path d="M63.5703 267.166C52.77 269.481 42.1378 262.602 39.8227 251.802L22.0073 168.69L124.675 146.682L146.682 249.35L63.5703 267.166Z" fill="url(#paint2_linear_5_3)"/>
<path d="M44.0145 271.357L22.0073 168.69L44.0145 271.357ZM124.829 146.445L146.878 249.308L146.487 249.392L124.521 146.92L124.829 146.445ZM146.682 249.35L44.0145 271.357L146.682 249.35ZM21.9654 168.494L124.829 146.445L124.521 146.92L22.0492 168.885L21.9654 168.494Z" fill="black" mask="url(#path-6-inside-3_5_3)"/>
<mask id="path-8-inside-4_5_3" fill="white">
<path d="M102.668 44.0145L205.336 22.0073L227.343 124.675L124.675 146.682L102.668 44.0145Z"/>
</mask>
<path d="M102.668 44.0145L205.336 22.0073L227.343 124.675L124.675 146.682L102.668 44.0145Z" fill="url(#paint3_linear_5_3)"/>
<path d="M102.668 44.0145L205.336 22.0073L102.668 44.0145ZM227.58 124.829L124.521 146.92L124.829 146.445L227.105 124.521L227.58 124.829ZM124.521 146.92L102.472 44.0564L102.863 43.9726L124.829 146.445L124.521 146.92ZM205.531 21.9653L227.58 124.829L227.105 124.521L205.14 22.0492L205.531 21.9653Z" fill="black" mask="url(#path-8-inside-4_5_3)"/>
<path d="M205.336 22.0073L288.448 4.19186C299.248 1.87676 309.88 8.75542 312.195 19.5558L325.819 83.112C328.134 93.9124 321.255 104.545 310.455 106.86L227.343 124.675L205.336 22.0073Z" fill="#A5C4FF"/>
<path d="M235.165 122.998C229.382 124.647 228.659 130.018 229.02 132.497L227.343 124.675L235.165 122.998Z" fill="#A5C4FF"/>
<defs>
<linearGradient id="paint0_linear_5_3" x1="187.007" y1="187.269" x2="59.9472" y2="90.3476" gradientUnits="userSpaceOnUse">
<stop stop-color="#A5C4FF"/>
<stop offset="1" stop-color="white"/>
</linearGradient>
<linearGradient id="paint1_linear_5_3" x1="61.946" y1="88.3464" x2="213.995" y2="168.253" gradientUnits="userSpaceOnUse">
<stop stop-color="#78AEFF"/>
<stop offset="1" stop-color="white"/>
</linearGradient>
<linearGradient id="paint2_linear_5_3" x1="84.0585" y1="271.333" x2="146.892" y2="0.294111" gradientUnits="userSpaceOnUse">
<stop stop-color="#78AEFF"/>
<stop offset="1" stop-color="#78AEFF" stop-opacity="0"/>
</linearGradient>
<linearGradient id="paint3_linear_5_3" x1="164.943" y1="84.283" x2="86.0222" y2="212.332" gradientUnits="userSpaceOnUse">
<stop stop-color="#78AEFF"/>
<stop offset="1" stop-color="white"/>
</linearGradient>
</defs>
</svg>
