<svg width="352" height="272" viewBox="0 0 352 272" fill="none" xmlns="http://www.w3.org/2000/svg">
<path d="M288.486 4.17986C299.287 1.8714 309.915 8.75659 312.224 19.5584L329.988 102.681L227.307 124.625L205.363 21.9442L288.486 4.17986Z" fill="white"/>
<mask id="path-2-inside-1_4_49" fill="white">
<path d="M205.363 21.9442L227.307 124.625L124.625 146.57L106.861 63.4466C104.553 52.6449 111.438 42.0169 122.24 39.7085L205.363 21.9442Z"/>
</mask>
<path d="M205.363 21.9442L227.307 124.625L124.625 146.57L106.861 63.4466C104.553 52.6449 111.438 42.0169 122.24 39.7085L205.363 21.9442Z" fill="url(#paint0_linear_4_49)"/>
<path d="M205.558 21.9024L227.544 124.779L227.069 124.472L205.167 21.986L205.558 21.9024ZM124.625 146.57L102.681 43.8883L124.625 146.57ZM102.681 43.8883L205.363 21.9442L102.681 43.8883ZM227.544 124.779L124.667 146.765L124.584 146.374L227.069 124.472L227.544 124.779Z" fill="black" mask="url(#path-2-inside-1_4_49)"/>
<mask id="path-4-inside-2_4_49" fill="white">
<path d="M347.752 185.804C350.061 196.606 343.176 207.234 332.374 209.543L249.251 227.307L227.307 124.625L329.988 102.681L347.752 185.804Z"/>
</mask>
<path d="M347.752 185.804C350.061 196.606 343.176 207.234 332.374 209.543L249.251 227.307L227.307 124.625L329.988 102.681L347.752 185.804Z" fill="url(#paint1_linear_4_49)"/>
<path d="M351.932 205.363L249.251 227.307L351.932 205.363ZM227.069 124.472L329.946 102.486L330.03 102.877L227.544 124.779L227.069 124.472ZM329.988 102.681L351.932 205.363L329.988 102.681ZM249.055 227.349L227.069 124.472L227.544 124.779L249.447 227.265L249.055 227.349Z" fill="black" mask="url(#path-4-inside-2_4_49)"/>
<mask id="path-6-inside-3_4_49" fill="white">
<path d="M288.486 4.17986C299.287 1.8714 309.915 8.75659 312.224 19.5584L329.988 102.681L227.307 124.625L205.363 21.9442L288.486 4.17986Z"/>
</mask>
<path d="M288.486 4.17986C299.287 1.8714 309.915 8.75659 312.224 19.5584L329.988 102.681L227.307 124.625L205.363 21.9442L288.486 4.17986Z" fill="url(#paint2_linear_4_49)"/>
<path d="M308.044 2.28882e-05L329.988 102.681L308.044 2.28882e-05ZM227.153 124.863L205.167 21.986L205.558 21.9024L227.461 124.388L227.153 124.863ZM205.363 21.9442L308.044 2.28882e-05L205.363 21.9442ZM330.03 102.877L227.153 124.863L227.461 124.388L329.946 102.486L330.03 102.877Z" fill="black" mask="url(#path-6-inside-3_4_49)"/>
<mask id="path-8-inside-4_4_49" fill="white">
<path d="M249.251 227.307L146.57 249.251L124.625 146.57L227.307 124.625L249.251 227.307Z"/>
</mask>
<path d="M249.251 227.307L146.57 249.251L124.625 146.57L227.307 124.625L249.251 227.307Z" fill="url(#paint3_linear_4_49)"/>
<path d="M249.251 227.307L146.57 249.251L249.251 227.307ZM124.388 146.416L227.461 124.388L227.153 124.863L124.863 146.723L124.388 146.416ZM227.461 124.388L249.446 227.265L249.055 227.349L227.153 124.863L227.461 124.388ZM146.374 249.293L124.388 146.416L124.863 146.723L146.765 249.209L146.374 249.293Z" fill="black" mask="url(#path-8-inside-4_4_49)"/>
<path d="M146.57 249.251L63.4466 267.015C52.6448 269.324 42.0169 262.439 39.7084 251.637L26.124 188.072C23.8155 177.27 30.7007 166.642 41.5025 164.334L124.625 146.57L146.57 249.251Z" fill="#A5C4FF"/>
<path d="M116.802 148.242C122.586 146.596 123.313 141.226 122.954 138.746L124.625 146.57L116.802 148.242Z" fill="#A5C4FF"/>
<defs>
<linearGradient id="paint0_linear_4_49" x1="165" y1="84" x2="292" y2="181" gradientUnits="userSpaceOnUse">
<stop stop-color="#A5C4FF"/>
<stop offset="1" stop-color="white"/>
</linearGradient>
<linearGradient id="paint1_linear_4_49" x1="290" y1="183" x2="138" y2="103" gradientUnits="userSpaceOnUse">
<stop stop-color="#78AEFF"/>
<stop offset="1" stop-color="white"/>
</linearGradient>
<linearGradient id="paint2_linear_4_49" x1="268" y1="3.04083e-05" x2="205" y2="271" gradientUnits="userSpaceOnUse">
<stop stop-color="#78AEFF"/>
<stop offset="1" stop-color="#78AEFF" stop-opacity="0"/>
</linearGradient>
<linearGradient id="paint3_linear_4_49" x1="187" y1="187" x2="266" y2="59" gradientUnits="userSpaceOnUse">
<stop stop-color="#78AEFF"/>
<stop offset="1" stop-color="white"/>
</linearGradient>
</defs>
</svg>
