<svg width="511" height="384" viewBox="0 0 511 384" fill="none" xmlns="http://www.w3.org/2000/svg">
<g id="Logos" filter="url(#filter0_f_5_11)">
<g id="Logo">
<g id="Frame 3">
<path d="M439.486 108.18C450.287 105.871 460.915 112.757 463.224 123.558L480.988 206.681L378.307 228.625L356.363 125.944L439.486 108.18Z" fill="white"/>
</g>
<g id="Frame 6">
<mask id="path-2-inside-1_5_11" fill="white">
<path d="M356.363 125.944L378.307 228.625L275.625 250.57L257.861 167.447C255.553 156.645 262.438 146.017 273.24 143.708L356.363 125.944Z"/>
</mask>
<path d="M356.363 125.944L378.307 228.625L275.625 250.57L257.861 167.447C255.553 156.645 262.438 146.017 273.24 143.708L356.363 125.944Z" fill="url(#paint0_linear_5_11)"/>
<path d="M356.558 125.902L378.544 228.779L378.069 228.472L356.167 125.986L356.558 125.902ZM275.625 250.57L253.681 147.888L275.625 250.57ZM253.681 147.888L356.363 125.944L253.681 147.888ZM378.544 228.779L275.667 250.765L275.584 250.374L378.069 228.472L378.544 228.779Z" fill="black" mask="url(#path-2-inside-1_5_11)"/>
</g>
<g id="Frame 1">
<mask id="path-4-inside-2_5_11" fill="white">
<path d="M498.752 289.804C501.061 300.606 494.176 311.234 483.374 313.543L400.251 331.307L378.307 228.625L480.988 206.681L498.752 289.804Z"/>
</mask>
<path d="M498.752 289.804C501.061 300.606 494.176 311.234 483.374 313.543L400.251 331.307L378.307 228.625L480.988 206.681L498.752 289.804Z" fill="url(#paint1_linear_5_11)"/>
<path d="M502.932 309.363L400.251 331.307L502.932 309.363ZM378.069 228.472L480.946 206.486L481.03 206.877L378.544 228.779L378.069 228.472ZM480.988 206.681L502.932 309.363L480.988 206.681ZM400.055 331.349L378.069 228.472L378.544 228.779L400.447 331.265L400.055 331.349Z" fill="black" mask="url(#path-4-inside-2_5_11)"/>
</g>
<g id="Frame 5">
<mask id="path-6-inside-3_5_11" fill="white">
<path d="M439.486 108.18C450.287 105.871 460.915 112.757 463.224 123.558L480.988 206.681L378.307 228.625L356.363 125.944L439.486 108.18Z"/>
</mask>
<path d="M439.486 108.18C450.287 105.871 460.915 112.757 463.224 123.558L480.988 206.681L378.307 228.625L356.363 125.944L439.486 108.18Z" fill="url(#paint2_linear_5_11)"/>
<path d="M459.044 104L480.988 206.681L459.044 104ZM378.153 228.863L356.167 125.986L356.558 125.902L378.461 228.388L378.153 228.863ZM356.363 125.944L459.044 104L356.363 125.944ZM481.03 206.877L378.153 228.863L378.461 228.388L480.946 206.486L481.03 206.877Z" fill="black" mask="url(#path-6-inside-3_5_11)"/>
</g>
<g id="Frame 2">
<mask id="path-8-inside-4_5_11" fill="white">
<path d="M400.251 331.307L297.57 353.251L275.625 250.57L378.307 228.625L400.251 331.307Z"/>
</mask>
<path d="M400.251 331.307L297.57 353.251L275.625 250.57L378.307 228.625L400.251 331.307Z" fill="url(#paint3_linear_5_11)"/>
<path d="M400.251 331.307L297.57 353.251L400.251 331.307ZM275.388 250.416L378.461 228.388L378.153 228.863L275.863 250.723L275.388 250.416ZM378.461 228.388L400.446 331.265L400.055 331.349L378.153 228.863L378.461 228.388ZM297.374 353.293L275.388 250.416L275.863 250.723L297.765 353.209L297.374 353.293Z" fill="black" mask="url(#path-8-inside-4_5_11)"/>
</g>
<g id="Frame 4">
<path d="M297.57 353.251L214.447 371.015C203.645 373.324 193.017 366.439 190.708 355.637L177.124 292.072C174.816 281.27 181.701 270.642 192.502 268.334L275.625 250.57L297.57 353.251Z" fill="#A5C4FF"/>
</g>
<path id="Vector 1" d="M267.802 252.242C273.586 250.596 274.313 245.226 273.954 242.746L275.625 250.57L267.802 252.242Z" fill="#A5C4FF"/>
</g>
<g id="Logo_2">
<g id="Frame 3_2">
<path d="M71.5703 275.166C60.77 277.481 50.1378 270.602 47.8227 259.802L30.0073 176.69L132.675 154.682L154.682 257.35L71.5703 275.166Z" fill="white"/>
</g>
<g id="Frame 6_2">
<mask id="path-13-inside-5_5_11" fill="white">
<path d="M154.682 257.35L132.675 154.682L235.343 132.675L253.158 215.787C255.473 226.587 248.595 237.22 237.794 239.535L154.682 257.35Z"/>
</mask>
<path d="M154.682 257.35L132.675 154.682L235.343 132.675L253.158 215.787C255.473 226.587 248.595 237.22 237.794 239.535L154.682 257.35Z" fill="url(#paint4_linear_5_11)"/>
<path d="M154.487 257.392L132.438 154.529L132.913 154.836L154.878 257.308L154.487 257.392ZM235.343 132.675L257.35 235.343L235.343 132.675ZM257.35 235.343L154.682 257.35L257.35 235.343ZM132.438 154.529L235.301 132.48L235.385 132.871L132.913 154.836L132.438 154.529Z" fill="black" mask="url(#path-13-inside-5_5_11)"/>
</g>
<g id="Frame 1_2">
<mask id="path-15-inside-6_5_11" fill="white">
<path d="M12.1919 93.5776C9.87676 82.7772 16.7554 72.145 27.5558 69.8299L110.668 52.0145L132.675 154.682L30.0073 176.69L12.1919 93.5776Z"/>
</mask>
<path d="M12.1919 93.5776C9.87676 82.7772 16.7554 72.145 27.5558 69.8299L110.668 52.0145L132.675 154.682L30.0073 176.69L12.1919 93.5776Z" fill="url(#paint5_linear_5_11)"/>
<path d="M8 74.0218L110.668 52.0145L8 74.0218ZM132.913 154.836L30.0492 176.885L29.9654 176.494L132.438 154.529L132.913 154.836ZM30.0073 176.69L8 74.0218L30.0073 176.69ZM110.863 51.9726L132.913 154.836L132.438 154.529L110.472 52.0565L110.863 51.9726Z" fill="black" mask="url(#path-15-inside-6_5_11)"/>
</g>
<g id="Frame 5_2">
<mask id="path-17-inside-7_5_11" fill="white">
<path d="M71.5703 275.166C60.77 277.481 50.1378 270.602 47.8227 259.802L30.0073 176.69L132.675 154.682L154.682 257.35L71.5703 275.166Z"/>
</mask>
<path d="M71.5703 275.166C60.77 277.481 50.1378 270.602 47.8227 259.802L30.0073 176.69L132.675 154.682L154.682 257.35L71.5703 275.166Z" fill="url(#paint6_linear_5_11)"/>
<path d="M52.0145 279.357L30.0073 176.69L52.0145 279.357ZM132.829 154.445L154.878 257.308L154.487 257.392L132.521 154.92L132.829 154.445ZM154.682 257.35L52.0145 279.357L154.682 257.35ZM29.9653 176.494L132.829 154.445L132.521 154.92L30.0492 176.885L29.9653 176.494Z" fill="black" mask="url(#path-17-inside-7_5_11)"/>
</g>
<g id="Frame 2_2">
<mask id="path-19-inside-8_5_11" fill="white">
<path d="M110.668 52.0145L213.336 30.0073L235.343 132.675L132.675 154.682L110.668 52.0145Z"/>
</mask>
<path d="M110.668 52.0145L213.336 30.0073L235.343 132.675L132.675 154.682L110.668 52.0145Z" fill="url(#paint7_linear_5_11)"/>
<path d="M110.668 52.0145L213.336 30.0073L110.668 52.0145ZM235.58 132.829L132.521 154.92L132.829 154.445L235.105 132.521L235.58 132.829ZM132.521 154.92L110.472 52.0564L110.863 51.9726L132.829 154.445L132.521 154.92ZM213.531 29.9653L235.58 132.829L235.105 132.521L213.14 30.0492L213.531 29.9653Z" fill="black" mask="url(#path-19-inside-8_5_11)"/>
</g>
<g id="Frame 4_2">
<path d="M213.336 30.0073L296.448 12.1919C307.248 9.87676 317.88 16.7554 320.195 27.5558L333.819 91.112C336.134 101.912 329.255 112.545 318.455 114.86L235.343 132.675L213.336 30.0073Z" fill="#A5C4FF"/>
</g>
<path id="Vector 1_2" d="M243.165 130.998C237.382 132.647 236.659 138.018 237.02 140.497L235.343 132.675L243.165 130.998Z" fill="#A5C4FF"/>
</g>
</g>
<defs>
<filter id="filter0_f_5_11" x="0" y="-4.41074e-06" width="510.932" height="383.195" filterUnits="userSpaceOnUse" color-interpolation-filters="sRGB">
<feFlood flood-opacity="0" result="BackgroundImageFix"/>
<feBlend mode="normal" in="SourceGraphic" in2="BackgroundImageFix" result="shape"/>
<feGaussianBlur stdDeviation="4" result="effect1_foregroundBlur_5_11"/>
</filter>
<linearGradient id="paint0_linear_5_11" x1="316" y1="188" x2="443" y2="285" gradientUnits="userSpaceOnUse">
<stop stop-color="#A5C4FF"/>
<stop offset="1" stop-color="white"/>
</linearGradient>
<linearGradient id="paint1_linear_5_11" x1="441" y1="287" x2="289" y2="207" gradientUnits="userSpaceOnUse">
<stop stop-color="#78AEFF"/>
<stop offset="1" stop-color="white"/>
</linearGradient>
<linearGradient id="paint2_linear_5_11" x1="419" y1="104" x2="356" y2="375" gradientUnits="userSpaceOnUse">
<stop stop-color="#78AEFF"/>
<stop offset="1" stop-color="#78AEFF" stop-opacity="0"/>
</linearGradient>
<linearGradient id="paint3_linear_5_11" x1="338" y1="291" x2="417" y2="163" gradientUnits="userSpaceOnUse">
<stop stop-color="#78AEFF"/>
<stop offset="1" stop-color="white"/>
</linearGradient>
<linearGradient id="paint4_linear_5_11" x1="195.007" y1="195.269" x2="67.9472" y2="98.3476" gradientUnits="userSpaceOnUse">
<stop stop-color="#A5C4FF"/>
<stop offset="1" stop-color="white"/>
</linearGradient>
<linearGradient id="paint5_linear_5_11" x1="69.946" y1="96.3464" x2="221.995" y2="176.253" gradientUnits="userSpaceOnUse">
<stop stop-color="#78AEFF"/>
<stop offset="1" stop-color="white"/>
</linearGradient>
<linearGradient id="paint6_linear_5_11" x1="92.0585" y1="279.333" x2="154.892" y2="8.29411" gradientUnits="userSpaceOnUse">
<stop stop-color="#78AEFF"/>
<stop offset="1" stop-color="#78AEFF" stop-opacity="0"/>
</linearGradient>
<linearGradient id="paint7_linear_5_11" x1="172.944" y1="92.283" x2="94.0222" y2="220.332" gradientUnits="userSpaceOnUse">
<stop stop-color="#78AEFF"/>
<stop offset="1" stop-color="white"/>
</linearGradient>
</defs>
</svg>
