<svg width="312" height="312" viewBox="0 0 312 312" fill="none" xmlns="http://www.w3.org/2000/svg">
<path d="M85.9202 232.849C76.822 239.113 64.369 236.815 58.1056 227.716L36.2232 195.93L84.4834 162.707L117.707 210.967L85.9202 232.849Z" fill="#38C3FF"/>
<mask id="path-2-inside-1_218_4" fill="white">
<path d="M117.707 210.967L84.4834 162.707L132.744 129.483L154.626 161.27C160.889 170.368 158.591 182.821 149.493 189.085L117.707 210.967Z"/>
</mask>
<path d="M117.707 210.967L84.4834 162.707L132.744 129.483L154.626 161.27C160.889 170.368 158.591 182.821 149.493 189.085L117.707 210.967Z" fill="#38C3FF"/>
<path d="M117.542 211.08L84.2053 162.655L84.7616 162.758L117.871 210.853L117.542 211.08ZM132.744 129.483L165.967 177.744L132.744 129.483ZM165.967 177.744L117.707 210.967L165.967 177.744ZM84.2053 162.655L132.63 129.319L132.857 129.648L84.7616 162.758L84.2053 162.655Z" fill="black" mask="url(#path-2-inside-1_218_4)"/>
<mask id="path-4-inside-2_218_4" fill="white">
<path d="M14.3409 164.143C8.07749 155.045 10.3756 142.592 19.4738 136.329L51.2602 114.446L84.4834 162.707L36.2232 195.93L14.3409 164.143Z"/>
</mask>
<path d="M14.3409 164.143C8.07749 155.045 10.3756 142.592 19.4738 136.329L51.2602 114.446L84.4834 162.707L36.2232 195.93L14.3409 164.143Z" fill="#38C3FF"/>
<path d="M3.00001 147.67L51.2602 114.446L3.00001 147.67ZM84.7616 162.758L36.3366 196.095L36.1098 195.765L84.2053 162.655L84.7616 162.758ZM36.2232 195.93L3.00001 147.67L36.2232 195.93ZM51.425 114.333L84.7616 162.758L84.2053 162.655L51.0955 114.56L51.425 114.333Z" fill="black" mask="url(#path-4-inside-2_218_4)"/>
<mask id="path-6-inside-3_218_4" fill="white">
<path d="M85.9202 232.849C76.822 239.113 64.369 236.815 58.1056 227.716L36.2232 195.93L84.4834 162.707L117.707 210.967L85.9202 232.849Z"/>
</mask>
<path d="M85.9202 232.849C76.822 239.113 64.369 236.815 58.1056 227.716L36.2232 195.93L84.4834 162.707L117.707 210.967L85.9202 232.849Z" fill="#38C3FF"/>
<path d="M69.4465 244.19L36.2232 195.93L69.4465 244.19ZM84.5348 162.429L117.871 210.853L117.542 211.08L84.4321 162.985L84.5348 162.429ZM117.707 210.967L69.4465 244.19L117.707 210.967ZM36.1098 195.765L84.5348 162.429L84.4321 162.985L36.3366 196.095L36.1098 195.765Z" fill="black" mask="url(#path-6-inside-3_218_4)"/>
<mask id="path-8-inside-4_218_4" fill="white">
<path d="M51.2602 114.446L99.5204 81.2232L132.744 129.483L84.4834 162.707L51.2602 114.446Z"/>
</mask>
<path d="M51.2602 114.446L99.5204 81.2232L132.744 129.483L84.4834 162.707L51.2602 114.446Z" fill="#38C3FF"/>
<path d="M51.2602 114.446L99.5204 81.2232L51.2602 114.446ZM133.022 129.535L84.4321 162.985L84.5348 162.429L132.465 129.432L133.022 129.535ZM84.4321 162.985L51.0955 114.56L51.4249 114.333L84.5348 162.429L84.4321 162.985ZM99.6851 81.1098L133.022 129.535L132.465 129.432L99.3557 81.3367L99.6851 81.1098Z" fill="black" mask="url(#path-8-inside-4_218_4)"/>
<path d="M99.5204 81.2233L131.307 59.3409C140.405 53.0775 152.858 55.3756 159.121 64.4738L169.663 79.7865C175.926 88.8847 173.628 101.338 164.53 107.601L132.744 129.483L99.5204 81.2233Z" fill="#38C3FF"/>
<path d="M136.421 126.952C133.789 129.035 134.56 131.959 135.275 133.16L132.744 129.483L136.421 126.952Z" fill="#38C3FF"/>
<path d="M225.523 78.366C234.625 72.1082 247.077 74.414 253.335 83.516L275.197 115.316L226.917 148.509L193.723 100.229L225.523 78.366Z" fill="#38C3FF"/>
<mask id="path-13-inside-5_218_4" fill="white">
<path d="M193.723 100.229L226.917 148.509L178.636 181.703L156.773 149.903C150.515 140.801 152.821 128.349 161.923 122.092L193.723 100.229Z"/>
</mask>
<path d="M193.723 100.229L226.917 148.509L178.636 181.703L156.773 149.903C150.515 140.801 152.821 128.349 161.923 122.092L193.723 100.229Z" fill="#38C3FF"/>
<path d="M193.888 100.116L227.195 148.561L226.639 148.458L193.558 100.342L193.888 100.116ZM178.636 181.703L145.443 133.422L178.636 181.703ZM145.443 133.422L193.723 100.229L145.443 133.422ZM227.195 148.561L178.749 181.868L178.523 181.538L226.639 148.458L227.195 148.561Z" fill="black" mask="url(#path-13-inside-5_218_4)"/>
<mask id="path-15-inside-6_218_4" fill="white">
<path d="M297.06 147.116C303.318 156.218 301.012 168.669 291.91 174.927L260.11 196.79L226.917 148.509L275.197 115.316L297.06 147.116Z"/>
</mask>
<path d="M297.06 147.116C303.318 156.218 301.012 168.669 291.91 174.927L260.11 196.79L226.917 148.509L275.197 115.316L297.06 147.116Z" fill="#38C3FF"/>
<path d="M308.391 163.597L260.11 196.79L308.391 163.597ZM226.639 148.458L275.084 115.151L275.311 115.481L227.195 148.561L226.639 148.458ZM275.197 115.316L308.391 163.597L275.197 115.316ZM259.945 196.903L226.639 148.458L227.195 148.561L260.275 196.677L259.945 196.903Z" fill="black" mask="url(#path-15-inside-6_218_4)"/>
<mask id="path-17-inside-7_218_4" fill="white">
<path d="M225.523 78.366C234.625 72.1082 247.077 74.414 253.335 83.516L275.197 115.316L226.917 148.509L193.723 100.229L225.523 78.366Z"/>
</mask>
<path d="M225.523 78.366C234.625 72.1082 247.077 74.414 253.335 83.516L275.197 115.316L226.917 148.509L193.723 100.229L225.523 78.366Z" fill="#38C3FF"/>
<path d="M242.004 67.0353L275.197 115.316L242.004 67.0353ZM226.865 148.788L193.558 100.342L193.888 100.116L226.968 148.231L226.865 148.788ZM193.723 100.229L242.004 67.0353L193.723 100.229ZM275.311 115.481L226.865 148.788L226.968 148.231L275.084 115.151L275.311 115.481Z" fill="black" mask="url(#path-17-inside-7_218_4)"/>
<mask id="path-19-inside-8_218_4" fill="white">
<path d="M260.11 196.79L211.83 229.984L178.636 181.703L226.917 148.509L260.11 196.79Z"/>
</mask>
<path d="M260.11 196.79L211.83 229.984L178.636 181.703L226.917 148.509L260.11 196.79Z" fill="#38C3FF"/>
<path d="M260.11 196.79L211.83 229.984L260.11 196.79ZM178.358 181.652L226.968 148.231L226.865 148.788L178.914 181.755L178.358 181.652ZM226.968 148.231L260.275 196.677L259.945 196.903L226.865 148.788L226.968 148.231ZM211.665 230.097L178.358 181.652L178.914 181.755L211.994 229.87L211.665 230.097Z" fill="black" mask="url(#path-19-inside-8_218_4)"/>
<path d="M211.83 229.984L180.03 251.846C170.928 258.104 158.476 255.798 152.218 246.696L141.686 231.377C135.428 222.275 137.734 209.824 146.836 203.566L178.636 181.703L211.83 229.984Z" fill="#38C3FF"/>
<path d="M174.958 184.232C177.59 182.151 176.821 179.227 176.107 178.024L178.636 181.703L174.958 184.232Z" fill="#38C3FF"/>
</svg>
